Comme-Bold.ufo
<glyph name="five" format="1">
  <advance width="1343"/>
  <unicode hex="0035"/>
  <outline>
    <contour>
      <point x="678" y="745" type="curve" smooth="yes"/>
      <point x="820" y="745"/>
      <point x="898" y="622"/>
      <point x="898" y="491" type="curve" smooth="yes"/>
      <point x="898" y="329"/>
      <point x="815" y="215"/>
      <point x="645" y="215" type="curve" smooth="yes"/>
      <point x="530" y="215"/>
      <point x="411" y="258"/>
      <point x="343" y="368" type="curve"/>
      <point x="324" y="368" type="line"/>
      <point x="172" y="205" type="line"/>
      <point x="263" y="67"/>
      <point x="422" y="-20"/>
      <point x="674" y="-20" type="curve" smooth="yes"/>
      <point x="1012" y="-20"/>
      <point x="1190" y="214"/>
      <point x="1190" y="481" type="curve" smooth="yes"/>
      <point x="1190" y="711"/>
      <point x="1048" y="952"/>
      <point x="732" y="952" type="curve" smooth="yes"/>
      <point x="628" y="952"/>
      <point x="555" y="923"/>
      <point x="495" y="871" type="curve"/>
      <point x="539" y="1244" type="line"/>
      <point x="1087" y="1244" type="line"/>
      <point x="1116" y="1456" type="line"/>
      <point x="293" y="1456" type="line"/>
      <point x="235" y="659" type="line"/>
      <point x="462" y="622" type="line"/>
      <point x="496" y="704"/>
      <point x="568" y="745"/>
    </contour>
  </outline>
</glyph>
<glyph name="question" format="1">
  <advance width="1029"/>
  <unicode hex="003F"/>
  <outline>
    <contour>
      <point x="367" y="-18" type="curve" smooth="yes"/>
      <point x="459" y="-18"/>
      <point x="512" y="43"/>
      <point x="512" y="130" type="curve" smooth="yes"/>
      <point x="512" y="217"/>
      <point x="459" y="277"/>
      <point x="367" y="277" type="curve" smooth="yes"/>
      <point x="273" y="277"/>
      <point x="218" y="217"/>
      <point x="218" y="130" type="curve" smooth="yes"/>
      <point x="218" y="44"/>
      <point x="273" y="-18"/>
    </contour>
    <contour>
      <point x="325" y="483" type="curve"/>
      <point x="404" y="463" type="line"/>
      <point x="575" y="784"/>
      <point x="880" y="825"/>
      <point x="880" y="1185" type="curve" smooth="yes"/>
      <point x="880" y="1413"/>
      <point x="692" y="1532"/>
      <point x="481" y="1532" type="curve" smooth="yes"/>
      <point x="361" y="1532"/>
      <point x="210" y="1492"/>
      <point x="115" y="1403" type="curve"/>
      <point x="186" y="1191" type="line"/>
      <point x="254" y="1230"/>
      <point x="349" y="1268"/>
      <point x="433" y="1268" type="curve" smooth="yes"/>
      <point x="549" y="1268"/>
      <point x="598" y="1201"/>
      <point x="598" y="1103" type="curve" smooth="yes"/>
      <point x="598" y="941"/>
      <point x="419" y="831"/>
    </contour>
  </outline>
</glyph>
<glyph name="at" format="1">
  <advance width="2000"/>
  <unicode hex="0040"/>
  <outline>
    <contour>
      <point x="803" y="619" type="curve" smooth="yes"/>
      <point x="803" y="825"/>
      <point x="909" y="1006"/>
      <point x="1080" y="1006" type="curve" smooth="yes"/>
      <point x="1108" y="1006"/>
      <point x="1158" y="1000"/>
      <point x="1195" y="993" type="curve"/>
      <point x="1156" y="751" type="line"/>
      <point x="1123" y="526"/>
      <point x="1070" y="416"/>
      <point x="940" y="416" type="curve" smooth="yes"/>
      <point x="850" y="416"/>
      <point x="803" y="485"/>
    </contour>
    <contour>
      <point x="988" y="-146" type="curve" smooth="yes"/>
      <point x="1195" y="-146"/>
      <point x="1411" y="-96"/>
      <point x="1542" y="2" type="curve"/>
      <point x="1484" y="148" type="line"/>
      <point x="1346" y="67"/>
      <point x="1166" y="35"/>
      <point x="991" y="35" type="curve" smooth="yes"/>
      <point x="600" y="35"/>
      <point x="378" y="309"/>
      <point x="378" y="670" type="curve" smooth="yes"/>
      <point x="378" y="1043"/>
      <point x="626" y="1374"/>
      <point x="1049" y="1374" type="curve" smooth="yes"/>
      <point x="1465" y="1374"/>
      <point x="1658" y="1111"/>
      <point x="1658" y="821" type="curve" smooth="yes"/>
      <point x="1658" y="553"/>
      <point x="1550" y="421"/>
      <point x="1452" y="421" type="curve" smooth="yes"/>
      <point x="1396" y="421"/>
      <point x="1357" y="468"/>
      <point x="1357" y="545" type="curve" smooth="yes"/>
      <point x="1357" y="673"/>
      <point x="1396" y="868"/>
      <point x="1424" y="1081" type="curve"/>
      <point x="1348" y="1121"/>
      <point x="1199" y="1166"/>
      <point x="1064" y="1166" type="curve" smooth="yes"/>
      <point x="753" y="1166"/>
      <point x="581" y="893"/>
      <point x="581" y="631" type="curve" smooth="yes"/>
      <point x="581" y="422"/>
      <point x="689" y="252"/>
      <point x="923" y="252" type="curve" smooth="yes"/>
      <point x="1057" y="252"/>
      <point x="1160" y="349"/>
      <point x="1210" y="483" type="curve"/>
      <point x="1238" y="342"/>
      <point x="1386" y="320"/>
      <point x="1452" y="260" type="curve"/>
      <point x="1644" y="260"/>
      <point x="1867" y="447"/>
      <point x="1867" y="813" type="curve" smooth="yes"/>
      <point x="1867" y="1262"/>
      <point x="1511" y="1558"/>
      <point x="1056" y="1558" type="curve" smooth="yes"/>
      <point x="533" y="1558"/>
      <point x="150" y="1172"/>
      <point x="150" y="674" type="curve" smooth="yes"/>
      <point x="150" y="156"/>
      <point x="492" y="-146"/>
    </contour>
  </outline>
</glyph>
<glyph name="C" format="1">
  <advance width="1545"/>
  <unicode hex="0043"/>
  <outline>
    <contour>
      <point x="840" y="0" type="move" name="bot"/>
    </contour>
    <contour>
      <point x="849" y="1456" type="move" name="top"/>
    </contour>
    <contour>
      <point x="1442" y="1047" type="line"/>
      <point x="1400" y="1240"/>
      <point x="1218" y="1476"/>
      <point x="834" y="1476" type="curve" smooth="yes"/>
      <point x="393" y="1476"/>
      <point x="127" y="1205"/>
      <point x="127" y="732" type="curve" smooth="yes"/>
      <point x="127" y="249"/>
      <point x="394" y="-20"/>
      <point x="836" y="-20" type="curve" smooth="yes"/>
      <point x="1229" y="-20"/>
      <point x="1401" y="214"/>
      <point x="1443" y="407" type="curve"/>
      <point x="1206" y="502" type="line"/>
      <point x="1181" y="502" type="line"/>
      <point x="1146" y="355"/>
      <point x="1036" y="207"/>
      <point x="841" y="207" type="curve" smooth="yes"/>
      <point x="624" y="207"/>
      <point x="470" y="358"/>
      <point x="470" y="732" type="curve" smooth="yes"/>
      <point x="470" y="1101"/>
      <point x="612" y="1249"/>
      <point x="858" y="1249" type="curve" smooth="yes"/>
      <point x="1041" y="1249"/>
      <point x="1145" y="1093"/>
      <point x="1180" y="953" type="curve"/>
      <point x="1204" y="953" type="line"/>
    </contour>
  </outline>
</glyph>
<glyph name="D" format="1">
  <advance width="1538"/>
  <unicode hex="0044"/>
  <outline>
    <contour>
      <point x="772" y="0" type="move" name="bot"/>
    </contour>
    <contour>
      <point x="790" y="1456" type="move" name="top"/>
    </contour>
    <contour>
      <point x="181" y="7" type="line"/>
      <point x="297" y="-5"/>
      <point x="402" y="-11"/>
      <point x="499" y="-11" type="curve" smooth="yes"/>
      <point x="1196" y="-11"/>
      <point x="1411" y="300"/>
      <point x="1411" y="754" type="curve" smooth="yes"/>
      <point x="1411" y="1242"/>
      <point x="1200" y="1466"/>
      <point x="544" y="1466" type="curve" smooth="yes"/>
      <point x="436" y="1466"/>
      <point x="315" y="1460"/>
      <point x="181" y="1448" type="curve"/>
    </contour>
    <contour>
      <point x="505" y="222" type="curve"/>
      <point x="505" y="1243" type="line"/>
      <point x="539" y="1245"/>
      <point x="572" y="1247"/>
      <point x="602" y="1247" type="curve" smooth="yes"/>
      <point x="1032" y="1247"/>
      <point x="1096" y="1028"/>
      <point x="1096" y="749" type="curve" smooth="yes"/>
      <point x="1096" y="428"/>
      <point x="980" y="219"/>
      <point x="585" y="219" type="curve" smooth="yes"/>
      <point x="560" y="219"/>
      <point x="533" y="220"/>
    </contour>
  </outline>
</glyph>
<glyph name="H" format="1">
  <advance width="1578"/>
  <unicode hex="0048"/>
  <outline>
    <contour>
      <point x="801" y="1456" type="move" name="top"/>
    </contour>
    <contour>
      <point x="1071" y="636" type="line"/>
      <point x="1071" y="-4" type="line"/>
      <point x="1396" y="-4" type="line"/>
      <point x="1396" y="1456" type="line"/>
      <point x="1071" y="1456" type="line"/>
      <point x="1071" y="857" type="line"/>
      <point x="507" y="857" type="line"/>
      <point x="507" y="1456" type="line"/>
      <point x="182" y="1456" type="line"/>
      <point x="182" y="-4" type="line"/>
      <point x="507" y="-4" type="line"/>
      <point x="507" y="636" type="line"/>
    </contour>
  </outline>
</glyph>
<glyph name="N" format="1">
  <advance width="1603"/>
  <unicode hex="004E"/>
  <outline>
    <contour>
      <point x="777" y="0" type="move" name="bot"/>
    </contour>
    <contour>
      <point x="770" y="1456" type="move" name="top"/>
    </contour>
    <contour>
      <point x="1121" y="1456" type="line"/>
      <point x="1121" y="832" type="line"/>
      <point x="1136" y="443" type="line"/>
      <point x="490" y="1456" type="line"/>
      <point x="181" y="1456" type="line"/>
      <point x="181" y="0" type="line"/>
      <point x="489" y="0" type="line"/>
      <point x="489" y="593" type="line"/>
      <point x="472" y="981" type="line"/>
      <point x="1101" y="0" type="line"/>
      <point x="1422" y="0" type="line"/>
      <point x="1422" y="1456" type="line"/>
    </contour>
  </outline>
</glyph>
<glyph name="Z" format="1">
  <advance width="1243"/>
  <unicode hex="005A"/>
  <outline>
    <contour>
      <point x="613" y="0" type="move" name="bot"/>
    </contour>
    <contour>
      <point x="648" y="1456" type="move" name="top"/>
    </contour>
    <contour>
      <point x="103" y="0" type="line"/>
      <point x="1168" y="0" type="line"/>
      <point x="1160" y="211" type="line"/>
      <point x="484" y="211" type="line"/>
      <point x="1146" y="1267" type="line"/>
      <point x="1144" y="1456" type="line"/>
      <point x="118" y="1456" type="line"/>
      <point x="130" y="1244" type="line"/>
      <point x="794" y="1244" type="line"/>
      <point x="103" y="178" type="line"/>
    </contour>
  </outline>
</glyph>
<glyph name="backslash" format="1">
  <advance width="937"/>
  <unicode hex="005C"/>
  <outline>
    <contour>
      <point x="588" y="8" type="line"/>
      <point x="809" y="8" type="line"/>
      <point x="319" y="1499" type="line"/>
      <point x="94" y="1499" type="line"/>
    </contour>
  </outline>
</glyph>
<glyph name="asciicircum" format="1">
  <advance width="1440"/>
  <unicode hex="005E"/>
  <outline>
    <contour>
      <point x="641" y="1456" type="line"/>
      <point x="103" y="280" type="line"/>
      <point x="405" y="280" type="line"/>
      <point x="713" y="994" type="line"/>
      <point x="1034" y="280" type="line"/>
      <point x="1336" y="280" type="line"/>
      <point x="774" y="1456" type="line"/>
    </contour>
  </outline>
</glyph>
<glyph name="c" format="1">
  <advance width="1113"/>
  <unicode hex="0063"/>
  <outline>
    <contour>
      <point x="620" y="0" type="move" name="bot"/>
    </contour>
    <contour>
      <point x="620" y="1082" type="move" name="top"/>
    </contour>
    <contour>
      <point x="851" y="333" type="line"/>
      <point x="819" y="247"/>
      <point x="745" y="190"/>
      <point x="644" y="190" type="curve" smooth="yes"/>
      <point x="504" y="190"/>
      <point x="396" y="304"/>
      <point x="396" y="542" type="curve" smooth="yes"/>
      <point x="396" y="779"/>
      <point x="504" y="893"/>
      <point x="644" y="893" type="curve" smooth="yes"/>
      <point x="646" y="893" type="line" smooth="yes"/>
      <point x="746" y="893"/>
      <point x="819" y="836"/>
      <point x="851" y="749" type="curve"/>
      <point x="864" y="749" type="line"/>
      <point x="1050" y="851" type="line"/>
      <point x="979" y="1012"/>
      <point x="849" y="1103"/>
      <point x="632" y="1103" type="curve" smooth="yes"/>
      <point x="299" y="1103"/>
      <point x="89" y="887"/>
      <point x="89" y="542" type="curve" smooth="yes"/>
      <point x="89" y="196"/>
      <point x="299" y="-20"/>
      <point x="632" y="-20" type="curve" smooth="yes"/>
      <point x="849" y="-20"/>
      <point x="980" y="71"/>
      <point x="1050" y="232" type="curve"/>
      <point x="863" y="333" type="line"/>
    </contour>
  </outline>
</glyph>
<glyph name="d" format="1">
  <advance width="1248"/>
  <unicode hex="0064"/>
  <outline>
    <contour>
      <point x="1043" y="1125" type="move" name="caron.alt"/>
    </contour>
    <contour>
      <point x="481" y="1082" type="move" name="top"/>
    </contour>
    <contour>
      <point x="604" y="181" type="curve" smooth="yes"/>
      <point x="481" y="181"/>
      <point x="399" y="275"/>
      <point x="399" y="537" type="curve" smooth="yes"/>
      <point x="399" y="818"/>
      <point x="492" y="903"/>
      <point x="612" y="903" type="curve" smooth="yes"/>
      <point x="707" y="903"/>
      <point x="771" y="863"/>
      <point x="812" y="809" type="curve"/>
      <point x="812" y="284" type="line"/>
      <point x="768" y="218"/>
      <point x="693" y="181"/>
    </contour>
    <contour>
      <point x="811" y="1540" type="line"/>
      <point x="811" y="1142" type="line"/>
      <point x="815" y="981" type="line"/>
      <point x="762" y="1046"/>
      <point x="675" y="1102"/>
      <point x="544" y="1102" type="curve" smooth="yes"/>
      <point x="542" y="1102" type="line"/>
      <point x="540" y="1102" type="line" smooth="yes"/>
      <point x="245" y="1102"/>
      <point x="92" y="871"/>
      <point x="92" y="536" type="curve" smooth="yes"/>
      <point x="92" y="217"/>
      <point x="240" y="-20"/>
      <point x="535" y="-20" type="curve" smooth="yes"/>
      <point x="537" y="-20" type="line" smooth="yes"/>
      <point x="682" y="-20"/>
      <point x="781" y="57"/>
      <point x="836" y="161" type="curve"/>
      <point x="845" y="0" type="line"/>
      <point x="1115" y="0" type="line"/>
      <point x="1115" y="1560" type="line"/>
    </contour>
  </outline>
</glyph>
<glyph name="j" format="1">
  <advance width="663"/>
  <unicode hex="006A"/>
  <outline>
    <contour>
      <point x="543" y="1451" type="curve" smooth="yes"/>
      <point x="543" y="1551"/>
      <point x="474" y="1618"/>
      <point x="362" y="1618" type="curve" smooth="yes"/>
      <point x="249" y="1618"/>
      <point x="180" y="1551"/>
      <point x="180" y="1451" type="curve" smooth="yes"/>
      <point x="180" y="1345"/>
      <point x="249" y="1277"/>
      <point x="362" y="1277" type="curve" smooth="yes"/>
      <point x="474" y="1277"/>
      <point x="543" y="1345"/>
    </contour>
    <contour>
      <point x="204" y="1082" type="line"/>
      <point x="204" y="7" type="line" smooth="yes"/>
      <point x="204" y="-154"/>
      <point x="188" y="-194"/>
      <point x="25" y="-258" type="curve"/>
      <point x="-60" y="-292" type="line"/>
      <point x="37" y="-515" type="line"/>
      <point x="118" y="-484" type="line"/>
      <point x="372" y="-391"/>
      <point x="511" y="-318"/>
      <point x="511" y="-25" type="curve" smooth="yes"/>
      <point x="511" y="1082" type="line"/>
    </contour>
  </outline>
</glyph>
<glyph name="r" format="1">
  <advance width="847"/>
  <unicode hex="0072"/>
  <outline>
    <contour>
      <point x="340" y="0" type="move" name="bot"/>
    </contour>
    <contour>
      <point x="434" y="1082" type="move" name="top"/>
    </contour>
    <contour>
      <point x="134" y="0" type="line"/>
      <point x="441" y="0" type="line"/>
      <point x="441" y="610" type="line" smooth="yes"/>
      <point x="441" y="763"/>
      <point x="561" y="860"/>
      <point x="717" y="860" type="curve" smooth="yes"/>
      <point x="725" y="860"/>
      <point x="734" y="860"/>
      <point x="742" y="859" type="curve" smooth="yes"/>
      <point x="795" y="854" type="line"/>
      <point x="814" y="1080" type="line"/>
      <point x="768" y="1088"/>
      <point x="724" y="1090"/>
      <point x="695" y="1090" type="curve" smooth="yes"/>
      <point x="594" y="1090"/>
      <point x="481" y="1037"/>
      <point x="416" y="894" type="curve"/>
      <point x="398" y="1082" type="line"/>
      <point x="134" y="1082" type="line"/>
    </contour>
  </outline>
</glyph>
<glyph name="s" format="1">
  <advance width="1001"/>
  <unicode hex="0073"/>
  <outline>
    <contour>
      <point x="506" y="0" type="move" name="bot"/>
    </contour>
    <contour>
      <point x="491" y="1082" type="move" name="top"/>
    </contour>
    <contour>
      <point x="657" y="301" type="curve" smooth="yes"/>
      <point x="657" y="231"/>
      <point x="612" y="183"/>
      <point x="520" y="183" type="curve" smooth="yes"/>
      <point x="435" y="183"/>
      <point x="322" y="205"/>
      <point x="232" y="315" type="curve"/>
      <point x="207" y="315" type="line"/>
      <point x="64" y="180" type="line"/>
      <point x="170" y="44"/>
      <point x="328" y="-20"/>
      <point x="533" y="-20" type="curve" smooth="yes"/>
      <point x="751" y="-20"/>
      <point x="945" y="90"/>
      <point x="946" y="309" type="curve" smooth="yes"/>
      <point x="946" y="439"/>
      <point x="917" y="534"/>
      <point x="678" y="629" type="curve"/>
      <point x="537" y="686" type="line"/>
      <point x="437" y="724"/>
      <point x="418" y="755"/>
      <point x="418" y="798" type="curve" smooth="yes"/>
      <point x="418" y="860"/>
      <point x="466" y="895"/>
      <point x="552" y="895" type="curve" smooth="yes"/>
      <point x="634" y="895"/>
      <point x="720" y="863"/>
      <point x="776" y="794" type="curve"/>
      <point x="789" y="794" type="line"/>
      <point x="927" y="919" type="line"/>
      <point x="847" y="1048"/>
      <point x="694" y="1103"/>
      <point x="514" y="1103" type="curve" smooth="yes"/>
      <point x="261" y="1103"/>
      <point x="101" y="983"/>
      <point x="101" y="790" type="curve" smooth="yes"/>
      <point x="101" y="639"/>
      <point x="176" y="548"/>
      <point x="395" y="470" type="curve" smooth="yes"/>
      <point x="508" y="430" type="line" smooth="yes"/>
      <point x="635" y="386"/>
      <point x="657" y="349"/>
    </contour>
  </outline>
</glyph>
<glyph name="t" format="1">
  <advance width="867"/>
  <unicode hex="0074"/>
  <outline>
    <contour>
      <point x="503" y="0" type="move" name="bot"/>
    </contour>
    <contour>
      <point x="400" y="1339" type="move" name="top"/>
    </contour>
    <contour>
      <point x="622" y="-9" type="curve"/>
      <point x="802" y="-4" type="line"/>
      <point x="811" y="196" type="line"/>
      <point x="667" y="202" type="line" smooth="yes"/>
      <point x="534" y="208"/>
      <point x="508" y="252"/>
      <point x="508" y="386" type="curve" smooth="yes"/>
      <point x="508" y="905" type="line"/>
      <point x="796" y="905" type="line"/>
      <point x="796" y="1082" type="line"/>
      <point x="508" y="1082" type="line"/>
      <point x="508" y="1409" type="line"/>
      <point x="235" y="1388" type="line"/>
      <point x="214" y="1084" type="line"/>
      <point x="48" y="1067" type="line"/>
      <point x="41" y="905" type="line"/>
      <point x="206" y="905" type="line"/>
      <point x="206" y="395" type="line" smooth="yes"/>
      <point x="206" y="120"/>
      <point x="257" y="-9"/>
    </contour>
  </outline>
</glyph>
<glyph name="v" format="1">
  <advance width="1095"/>
  <unicode hex="0076"/>
  <outline>
    <contour>
      <point x="400" y="0" type="line"/>
      <point x="705" y="0" type="line"/>
      <point x="1074" y="1082" type="line"/>
      <point x="767" y="1082" type="line"/>
      <point x="699" y="831"/>
      <point x="628" y="582"/>
      <point x="564" y="326" type="curve"/>
      <point x="336" y="1082" type="line"/>
      <point x="22" y="1082" type="line"/>
    </contour>
  </outline>
</glyph>
<glyph name="z" format="1">
  <advance width="974"/>
  <unicode hex="007A"/>
  <outline>
    <contour>
      <point x="500" y="0" type="move" name="bot"/>
    </contour>
    <contour>
      <point x="486" y="1082" type="move" name="top"/>
    </contour>
    <contour>
      <point x="86" y="1082" type="line"/>
      <point x="83" y="895" type="line"/>
      <point x="568" y="895" type="line"/>
      <point x="76" y="155" type="line"/>
      <point x="76" y="0" type="line"/>
      <point x="914" y="0" type="line"/>
      <point x="916" y="195" type="line"/>
      <point x="422" y="195" type="line"/>
      <point x="897" y="910" type="line"/>
      <point x="897" y="1082" type="line"/>
    </contour>
  </outline>
</glyph>
<glyph name="cent" format="1">
  <advance width="1113"/>
  <unicode hex="00A2"/>
  <outline>
    <component base="c"/>
    <contour>
      <point x="556" y="49" type="line"/>
      <point x="550" y="-301" type="line"/>
      <point x="680" y="-301" type="line"/>
      <point x="687" y="49" type="line"/>
    </contour>
    <contour>
      <point x="560" y="1370" type="line"/>
      <point x="556" y="1042" type="line"/>
      <point x="684" y="1042" type="line"/>
      <point x="698" y="1370" type="line"/>
    </contour>
  </outline>
</glyph>
<glyph name="sterling" format="1">
  <advance width="1197"/>
  <unicode hex="00A3"/>
  <outline>
    <contour>
      <point x="575" y="1016" type="line" smooth="yes"/>
      <point x="575" y="1197"/>
      <point x="650" y="1287"/>
      <point x="783" y="1287" type="curve" smooth="yes"/>
      <point x="857" y="1287"/>
      <point x="921" y="1258"/>
      <point x="992" y="1216" type="curve"/>
      <point x="1012" y="1216" type="line"/>
      <point x="1112" y="1402" type="line"/>
      <point x="1069" y="1440"/>
      <point x="932" y="1532"/>
      <point x="720" y="1532" type="curve" smooth="yes"/>
      <point x="379" y="1532"/>
      <point x="264" y="1302"/>
      <point x="264" y="973" type="curve" smooth="yes"/>
      <point x="264" y="853" type="line"/>
      <point x="81" y="853" type="line"/>
      <point x="81" y="670" type="line"/>
      <point x="264" y="670" type="line"/>
      <point x="264" y="217" type="line"/>
      <point x="88" y="196" type="line"/>
      <point x="99" y="0" type="line"/>
      <point x="1095" y="0" type="line"/>
      <point x="1102" y="219" type="line"/>
      <point x="575" y="219" type="line"/>
      <point x="575" y="670" type="line"/>
      <point x="903" y="670" type="line"/>
      <point x="903" y="853" type="line"/>
      <point x="575" y="853" type="line"/>
    </contour>
  </outline>
</glyph>
<glyph name="currency" format="1">
  <advance width="1125"/>
  <unicode hex="00A4"/>
  <outline>
    <contour>
      <point x="836" y="738" type="curve" smooth="yes"/>
      <point x="836" y="584"/>
      <point x="720" y="461"/>
      <point x="566" y="461" type="curve" smooth="yes"/>
      <point x="415" y="461"/>
      <point x="299" y="584"/>
      <point x="299" y="738" type="curve" smooth="yes"/>
      <point x="299" y="892"/>
      <point x="415" y="1018"/>
      <point x="566" y="1018" type="curve" smooth="yes"/>
      <point x="718" y="1018"/>
      <point x="836" y="892"/>
    </contour>
    <contour>
      <point x="809" y="1077" type="line"/>
      <point x="740" y="1133"/>
      <point x="658" y="1162"/>
      <point x="566" y="1162" type="curve" smooth="yes"/>
      <point x="475" y="1162"/>
      <point x="389" y="1129"/>
      <point x="321" y="1078" type="curve"/>
      <point x="145" y="1251" type="line"/>
      <point x="46" y="1153" type="line"/>
      <point x="227" y="976" type="line"/>
      <point x="181" y="905"/>
      <point x="156" y="825"/>
      <point x="156" y="738" type="curve" smooth="yes"/>
      <point x="156" y="651"/>
      <point x="183" y="569"/>
      <point x="227" y="501" type="curve"/>
      <point x="47" y="325" type="line"/>
      <point x="145" y="229" type="line"/>
      <point x="319" y="400" type="line"/>
      <point x="389" y="346"/>
      <point x="473" y="317"/>
      <point x="566" y="317" type="curve" smooth="yes"/>
      <point x="658" y="317"/>
      <point x="741" y="349"/>
      <point x="809" y="402" type="curve"/>
      <point x="990" y="228" type="line"/>
      <point x="1082" y="327" type="line"/>
      <point x="906" y="501" type="line"/>
      <point x="952" y="571"/>
      <point x="976" y="650"/>
      <point x="976" y="738" type="curve" smooth="yes"/>
      <point x="976" y="826"/>
      <point x="949" y="907"/>
      <point x="905" y="976" type="curve"/>
      <point x="1083" y="1152" type="line"/>
      <point x="990" y="1251" type="line"/>
    </contour>
  </outline>
</glyph>
<glyph name="copyright" format="1">
  <advance width="1768"/>
  <unicode hex="00A9"/>
  <outline>
    <contour>
      <point x="851" y="-45" type="curve" smooth="yes"/>
      <point x="1270" y="-45"/>
      <point x="1632" y="273"/>
      <point x="1632" y="728" type="curve" smooth="yes"/>
      <point x="1632" y="1184"/>
      <point x="1270" y="1501"/>
      <point x="851" y="1501" type="curve" smooth="yes"/>
      <point x="433" y="1501"/>
      <point x="75" y="1184"/>
      <point x="75" y="728" type="curve" smooth="yes"/>
      <point x="75" y="273"/>
      <point x="433" y="-45"/>
    </contour>
    <contour>
      <point x="851" y="92" type="curve" smooth="yes"/>
      <point x="514" y="92"/>
      <point x="227" y="354"/>
      <point x="227" y="728" type="curve" smooth="yes"/>
      <point x="227" y="1102"/>
      <point x="514" y="1363"/>
      <point x="851" y="1363" type="curve" smooth="yes"/>
      <point x="1188" y="1363"/>
      <point x="1476" y="1102"/>
      <point x="1476" y="728" type="curve" smooth="yes"/>
      <point x="1476" y="355"/>
      <point x="1188" y="92"/>
    </contour>
    <contour>
      <point x="872" y="247" type="curve" smooth="yes"/>
      <point x="972" y="247"/>
      <point x="1071" y="274"/>
      <point x="1156" y="327" type="curve"/>
      <point x="1112" y="442" type="line"/>
      <point x="1034" y="398"/>
      <point x="957" y="379"/>
      <point x="884" y="379" type="curve" smooth="yes"/>
      <point x="708" y="379"/>
      <point x="568" y="502"/>
      <point x="568" y="736" type="curve" smooth="yes"/>
      <point x="568" y="964"/>
      <point x="708" y="1089"/>
      <point x="881" y="1089" type="curve" smooth="yes"/>
      <point x="952" y="1089"/>
      <point x="1034" y="1067"/>
      <point x="1108" y="1024" type="curve"/>
      <point x="1155" y="1140" type="line"/>
      <point x="1070" y="1194"/>
      <point x="970" y="1222"/>
      <point x="870" y="1222" type="curve" smooth="yes"/>
      <point x="624" y="1222"/>
      <point x="395" y="1047"/>
      <point x="395" y="734" type="curve" smooth="yes"/>
      <point x="395" y="419"/>
      <point x="626" y="247"/>
    </contour>
  </outline>
</glyph>
<glyph name="uni00AD" format="1">
  <advance width="1006"/>
  <unicode hex="00AD"/>
  <outline>
    <contour>
      <point x="172" y="210" type="line"/>
      <point x="826" y="210" type="line"/>
      <point x="826" y="417" type="line"/>
      <point x="172" y="417" type="line"/>
    </contour>
  </outline>
</glyph>
<glyph name="guillemotright" format="1">
  <advance width="1033"/>
  <unicode hex="00BB"/>
  <outline>
    <contour>
      <point x="646" y="134" type="line"/>
      <point x="961" y="572" type="line"/>
      <point x="652" y="1002" type="line"/>
      <point x="477" y="1002" type="line"/>
      <point x="727" y="566" type="line"/>
      <point x="467" y="134" type="line"/>
    </contour>
    <contour>
      <point x="249" y="134" type="line"/>
      <point x="561" y="572" type="line"/>
      <point x="252" y="1002" type="line"/>
      <point x="75" y="1002" type="line"/>
      <point x="329" y="566" type="line"/>
      <point x="66" y="134" type="line"/>
    </contour>
  </outline>
</glyph>
<glyph name="Hbar" format="1">
  <advance width="1558"/>
  <unicode hex="0126"/>
  <outline>
    <component base="H"/>
    <contour>
      <point x="63" y="1286" type="line"/>
      <point x="63" y="1109" type="line"/>
      <point x="1490" y="1109" type="line"/>
      <point x="1490" y="1286" type="line"/>
    </contour>
  </outline>
</glyph>
<glyph name="uni0237" format="1">
  <advance width="673"/>
  <unicode hex="0237"/>
  <outline>
    <contour>
      <point x="208" y="1082" type="line"/>
      <point x="208" y="7" type="line" smooth="yes"/>
      <point x="208" y="-154"/>
      <point x="192" y="-194"/>
      <point x="29" y="-258" type="curve"/>
      <point x="-56" y="-292" type="line"/>
      <point x="41" y="-515" type="line"/>
      <point x="122" y="-484" type="line"/>
      <point x="376" y="-391"/>
      <point x="515" y="-318"/>
      <point x="515" y="-25" type="curve" smooth="yes"/>
      <point x="515" y="1082" type="line"/>
    </contour>
  </outline>
</glyph>
<glyph name="dotaccent" format="1">
  <advance width="582"/>
  <unicode hex="02D9"/>
  <outline>
    <contour>
      <point x="292" y="1082" type="move" name="_top"/>
    </contour>
    <contour>
      <point x="475" y="1451" type="curve" smooth="yes"/>
      <point x="475" y="1551"/>
      <point x="406" y="1618"/>
      <point x="294" y="1618" type="curve" smooth="yes"/>
      <point x="181" y="1618"/>
      <point x="112" y="1551"/>
      <point x="112" y="1451" type="curve" smooth="yes"/>
      <point x="112" y="1345"/>
      <point x="181" y="1277"/>
      <point x="294" y="1277" type="curve" smooth="yes"/>
      <point x="406" y="1277"/>
      <point x="475" y="1345"/>
    </contour>
  </outline>
</glyph>
<glyph name="uni0307" format="1">
  <advance width="576"/>
  <unicode hex="0307"/>
  <outline>
    <contour>
      <point x="463" y="1455" type="curve" smooth="yes"/>
      <point x="463" y="1551"/>
      <point x="398" y="1611"/>
      <point x="292" y="1611" type="curve" smooth="yes"/>
      <point x="185" y="1611"/>
      <point x="119" y="1551"/>
      <point x="119" y="1455" type="curve" smooth="yes"/>
      <point x="119" y="1354"/>
      <point x="185" y="1292"/>
      <point x="292" y="1292" type="curve" smooth="yes"/>
      <point x="398" y="1292"/>
      <point x="463" y="1354"/>
    </contour>
  </outline>
</glyph>
<glyph name="uni0311" format="1">
  <advance width="850"/>
  <unicode hex="0311"/>
  <outline>
    <contour>
      <point x="437" y="1076" type="move" name="_top"/>
    </contour>
    <contour>
      <point x="151" y="1311" type="curve"/>
      <point x="320" y="1311" type="line"/>
      <point x="320" y="1377"/>
      <point x="369" y="1414"/>
      <point x="434" y="1414" type="curve" smooth="yes"/>
      <point x="498" y="1414"/>
      <point x="549" y="1377"/>
      <point x="549" y="1311" type="curve"/>
      <point x="715" y="1311" type="line"/>
      <point x="715" y="1479"/>
      <point x="602" y="1576"/>
      <point x="434" y="1576" type="curve" smooth="yes"/>
      <point x="264" y="1576"/>
      <point x="151" y="1479"/>
    </contour>
  </outline>
</glyph>
<glyph name="uni0326" format="1">
  <advance width="619"/>
  <unicode hex="0326"/>
  <outline>
    <contour>
      <point x="341" y="0" type="move" name="_bot"/>
    </contour>
    <contour>
      <point x="146" y="-544" type="curve"/>
      <point x="337" y="-544" type="line"/>
      <point x="337" y="-544"/>
      <point x="467" y="-126"/>
      <point x="466" y="-111" type="curve"/>
      <point x="219" y="-111" type="line"/>
      <point x="219" y="-136"/>
      <point x="146" y="-544"/>
    </contour>
  </outline>
</glyph>
<glyph name="quotesinglbase" format="1">
  <advance width="505"/>
  <unicode hex="201A"/>
  <outline>
    <contour>
      <point x="102" y="-360" type="line"/>
      <point x="286" y="-360" type="line"/>
      <point x="407" y="147" type="line"/>
      <point x="144" y="147" type="line"/>
    </contour>
  </outline>
</glyph>
<glyph name="daggerdbl" format="1">
  <advance width="1102"/>
  <unicode hex="2021"/>
  <outline>
    <contour>
      <point x="427" y="1462" type="line"/>
      <point x="427" y="1085" type="line"/>
      <point x="130" y="1085" type="line"/>
      <point x="130" y="906" type="line"/>
      <point x="427" y="906" type="line"/>
      <point x="427" y="564" type="line"/>
      <point x="130" y="564" type="line"/>
      <point x="130" y="387" type="line"/>
      <point x="427" y="387" type="line"/>
      <point x="427" y="-93" type="line"/>
      <point x="692" y="-93" type="line"/>
      <point x="692" y="387" type="line"/>
      <point x="1003" y="387" type="line"/>
      <point x="1003" y="564" type="line"/>
      <point x="698" y="564" type="line"/>
      <point x="698" y="906" type="line"/>
      <point x="1004" y="906" type="line"/>
      <point x="1004" y="1085" type="line"/>
      <point x="697" y="1085" type="line"/>
      <point x="697" y="1462" type="line"/>
    </contour>
  </outline>
</glyph>
<glyph name="afii61289" format="1">
  <advance width="1318"/>
  <unicode hex="2113"/>
  <outline>
    <contour>
      <point x="293" y="294" type="curve" smooth="yes"/>
      <point x="293" y="79"/>
      <point x="413" y="-20"/>
      <point x="588" y="-20" type="curve" smooth="yes"/>
      <point x="850" y="-20"/>
      <point x="1020" y="98"/>
      <point x="1020" y="98" type="curve"/>
      <point x="992" y="278" type="line"/>
      <point x="890" y="233"/>
      <point x="794" y="201"/>
      <point x="717" y="201" type="curve" smooth="yes"/>
      <point x="644" y="202"/>
      <point x="603" y="236"/>
      <point x="603" y="318" type="curve" smooth="yes"/>
      <point x="603" y="345"/>
      <point x="607" y="378"/>
      <point x="617" y="417" type="curve" smooth="yes"/>
      <point x="675" y="652" type="line"/>
      <point x="963" y="865" type="line" smooth="yes"/>
      <point x="1215" y="1051"/>
      <point x="1316" y="1146"/>
      <point x="1316" y="1356" type="curve" smooth="yes"/>
      <point x="1316" y="1583"/>
      <point x="1136" y="1702"/>
      <point x="951" y="1702" type="curve" smooth="yes"/>
      <point x="791" y="1702"/>
      <point x="629" y="1615"/>
      <point x="569" y="1396" type="curve" smooth="yes"/>
      <point x="370" y="661" type="line"/>
      <point x="70" y="441" type="line"/>
      <point x="125" y="334" type="line"/>
      <point x="314" y="466" type="line"/>
      <point x="299" y="402"/>
      <point x="293" y="345"/>
    </contour>
    <contour>
      <point x="728" y="873" type="line"/>
      <point x="805" y="1200" type="line"/>
      <point x="825" y="1279"/>
      <point x="878" y="1473"/>
      <point x="990" y="1473" type="curve" smooth="yes"/>
      <point x="1068" y="1473"/>
      <point x="1108" y="1430"/>
      <point x="1108" y="1363" type="curve" smooth="yes"/>
      <point x="1108" y="1272"/>
      <point x="1035" y="1138"/>
      <point x="888" y="1011" type="curve" smooth="yes"/>
    </contour>
  </outline>
</glyph>
<glyph name="integral" format="1">
  <advance width="809"/>
  <unicode hex="222B"/>
  <outline>
    <contour>
      <point x="298" y="1178" type="curve" smooth="yes"/>
      <point x="298" y="-43" type="line" smooth="yes"/>
      <point x="298" y="-219"/>
      <point x="235" y="-254"/>
      <point x="150" y="-254" type="curve" smooth="yes"/>
      <point x="122" y="-254"/>
      <point x="89" y="-248"/>
      <point x="53" y="-242" type="curve"/>
      <point x="53" y="-455" type="line"/>
      <point x="115" y="-472"/>
      <point x="169" y="-478"/>
      <point x="215" y="-478" type="curve" smooth="yes"/>
      <point x="432" y="-478"/>
      <point x="546" y="-309"/>
      <point x="546" y="-35" type="curve" smooth="yes"/>
      <point x="546" y="1187" type="line" smooth="yes"/>
      <point x="546" y="1347"/>
      <point x="574" y="1419"/>
      <point x="687" y="1419" type="curve" smooth="yes"/>
      <point x="710" y="1419"/>
      <point x="737" y="1415"/>
      <point x="767" y="1410" type="curve"/>
      <point x="767" y="1582" type="line"/>
      <point x="702" y="1597"/>
      <point x="648" y="1606"/>
      <point x="600" y="1606" type="curve" smooth="yes"/>
      <point x="392" y="1606"/>
      <point x="298" y="1447"/>
    </contour>
  </outline>
</glyph>
